<svg xmlns="http://www.w3.org/2000/svg" viewBox="0 0 50 50"><defs><style>.cls-1{fill:none;}.cls-2{fill:#fff;}</style></defs><g id="Layer_2" data-name="Layer 2"><g id="Layer_1-2" data-name="Layer 1"><path class="cls-1" d="M50,0V50H45.31a3.44,3.44,0,0,0,.63-.7c.5-.9,1-1.84,1.44-2.76.33-.64.66-1.27,1-1.9a2,2,0,0,0-.77-2.82C45.73,40.88,43.85,39.93,42,39a1.4,1.4,0,0,0-1.33-.13c-.41.2-.8.43-1.22.67a9.89,9.89,0,0,0-2.66-4.11A5.16,5.16,0,0,0,33.23,34c-2.7,0-5.4,0-8.1,0a2.38,2.38,0,0,1-.53,0,9.59,9.59,0,0,1-3.2-1.74c-1.76-1.16-3.13-2.79-4.9-3.93a.49.49,0,0,1-.17-.18L15,25.26l4.24.56.55,1A12.62,12.62,0,0,1,20.51,28a9.08,9.08,0,0,0,3,4.09,5.22,5.22,0,0,0,2,.86,4.19,4.19,0,0,0,3.72-1.42,8.83,8.83,0,0,0,2.17-3.3,4.54,4.54,0,0,1,.37-.77c.28-.49.58-1,.89-1.46a.51.51,0,0,1,.3-.24c.66-.12,1.32-.21,2-.3,1.22-.17,2.45-.32,3.66-.51a7,7,0,0,0,1.08-.32c0-.06,0-.11,0-.17a52.07,52.07,0,0,0-6.59-1.1c-.09-.35-.19-.72-.26-1.09A.46.46,0,0,1,32.9,22c1.13-.89,2.28-1.75,3.4-2.65.56-.45,1.07-1,1.6-1.46a.61.61,0,0,1-.07-.14,3.48,3.48,0,0,0-.64.14c-1.63.62-3.26,1.24-4.88,1.9-.57.23-1.08.49-1.51-.2-.05-.1-.2-.15-.27-.2C31.36,17.21,32.18,15.1,33,13l-.16-.13a1.52,1.52,0,0,0-.43.19,4.55,4.55,0,0,0-.49.58c-1.11,1.43-2.24,2.84-3.32,4.29-.37.49-.75.2-1.14.15s-.3-.34-.32-.59-.06-.64-.11-1c-.19-1.29-.37-2.59-.58-3.88-.09-.57-.23-1.12-.35-1.69H25.9c-.64,2.31-.72,4.72-1.13,7.06l-1,.22a41.3,41.3,0,0,0-4.58-5.45,37.45,37.45,0,0,0,2.34,6.49l-1,.8-.68-.27-5-2a3.82,3.82,0,0,0-.69-.11c0,.05,0,.09,0,.14a3.4,3.4,0,0,0,.32.34q1.81,1.5,3.64,3c.61.49,1.44.83,1,1.89-.1.23-.15.34-.41.35-.46,0-.92.09-1.38.16L14.45,24c-1.1-3-2.58-5.76-3-9l.27,0c.87,0,1.24-.23,1.29-1.07A19.38,19.38,0,0,0,13,10.83c-.05-.66-.39-.86-1-.87h-.58A6.8,6.8,0,0,0,12,7.11a7.45,7.45,0,0,0-.49-2.92c-.27-.66-.51-1.35-1.33-1.55A.38.38,0,0,1,10,2.42,4.61,4.61,0,0,0,7.91,0Z"/><path class="cls-1" d="M16,50H0V0H7C6.4.94,5.77,1.89,5.13,2.83,4.58,3.62,4,4.35,3.49,5.18a4.46,4.46,0,0,0,0,4.17,4.23,4.23,0,0,0,.23.48s0,.06,0,.13H3.15A1.08,1.08,0,0,0,2,11.14v2.73A1.07,1.07,0,0,0,3.11,15h.73a3.31,3.31,0,0,0,1.88,3.42,1.35,1.35,0,0,1,.85,1.27c.14,1.31.4,2.61.67,3.91.36,1.72.74,3.45,1.17,5.16.27,1.06.65,2.09,1,3.14a1,1,0,0,1,0,.63,32.94,32.94,0,0,0-2.19,6.69,5.8,5.8,0,0,0,1,4.7,4.64,4.64,0,0,0,2.43,1.72,22,22,0,0,0,2.67.5.55.55,0,0,1,.46.31c.56,1,1.14,2,1.75,3A3.1,3.1,0,0,0,16,50Z"/><path class="cls-2" d="M47.62,41.82C45.73,40.88,43.85,39.93,42,39a1.4,1.4,0,0,0-1.33-.13c-.41.2-.8.43-1.22.67a9.89,9.89,0,0,0-2.66-4.11A5.16,5.16,0,0,0,33.23,34c-2.7,0-5.4,0-8.1,0a2.38,2.38,0,0,1-.53,0,9.59,9.59,0,0,1-3.2-1.74c-1.76-1.16-3.13-2.79-4.9-3.93a.49.49,0,0,1-.17-.18L15,25.26l4.24.56.55,1A12.62,12.62,0,0,1,20.51,28a9.08,9.08,0,0,0,3,4.09,5.22,5.22,0,0,0,2,.86,4.19,4.19,0,0,0,3.72-1.42,8.83,8.83,0,0,0,2.17-3.3,4.54,4.54,0,0,1,.37-.77c.28-.49.58-1,.89-1.46a.51.51,0,0,1,.3-.24c.66-.12,1.32-.21,2-.3,1.22-.17,2.45-.32,3.66-.51a7,7,0,0,0,1.08-.32c0-.06,0-.11,0-.17a52.07,52.07,0,0,0-6.59-1.1c-.09-.35-.19-.72-.26-1.09A.46.46,0,0,1,32.9,22c1.13-.89,2.28-1.75,3.4-2.65.56-.45,1.07-1,1.6-1.46a.61.61,0,0,1-.07-.14,3.48,3.48,0,0,0-.64.14c-1.63.62-3.26,1.24-4.88,1.9-.57.23-1.08.49-1.51-.2-.05-.1-.2-.15-.27-.2C31.36,17.21,32.18,15.1,33,13l-.16-.13a1.52,1.52,0,0,0-.43.19,4.55,4.55,0,0,0-.49.58c-1.11,1.43-2.24,2.84-3.32,4.29-.37.49-.75.2-1.14.15s-.3-.34-.32-.59-.06-.64-.11-1c-.19-1.29-.37-2.59-.58-3.88-.09-.57-.23-1.12-.35-1.69H25.9c-.64,2.31-.72,4.72-1.13,7.06l-1,.22a41.3,41.3,0,0,0-4.58-5.45,37.45,37.45,0,0,0,2.34,6.49l-1,.8-.68-.27-5-2a3.82,3.82,0,0,0-.69-.11c0,.05,0,.09,0,.14a3.4,3.4,0,0,0,.32.34q1.81,1.5,3.64,3c.61.49,1.44.83,1,1.89-.1.23-.15.34-.41.35-.46,0-.92.09-1.38.16L14.45,24c-1.1-3-2.58-5.76-3-9l.27,0c.87,0,1.24-.23,1.29-1.07A19.38,19.38,0,0,0,13,10.83c-.05-.66-.39-.86-1-.87h-.58A6.8,6.8,0,0,0,12,7.11a7.45,7.45,0,0,0-.49-2.92c-.27-.66-.51-1.35-1.33-1.55A.38.38,0,0,1,10,2.42,4.61,4.61,0,0,0,7.91,0H7C6.4.94,5.77,1.89,5.13,2.83,4.58,3.62,4,4.35,3.49,5.18a4.46,4.46,0,0,0,0,4.17,4.23,4.23,0,0,0,.23.48s0,.06,0,.13H3.15A1.08,1.08,0,0,0,2,11.14v2.73A1.07,1.07,0,0,0,3.11,15h.73a3.31,3.31,0,0,0,1.88,3.42,1.35,1.35,0,0,1,.85,1.27c.14,1.31.4,2.61.67,3.91.36,1.72.74,3.45,1.17,5.16.27,1.06.65,2.09,1,3.14a1,1,0,0,1,0,.63,32.94,32.94,0,0,0-2.19,6.69,5.8,5.8,0,0,0,1,4.7,4.64,4.64,0,0,0,2.43,1.72,22,22,0,0,0,2.67.5.55.55,0,0,1,.46.31c.56,1,1.14,2,1.75,3A3.1,3.1,0,0,0,16,50H45.31a3.44,3.44,0,0,0,.63-.7c.5-.9,1-1.84,1.44-2.76.33-.64.66-1.27,1-1.9A2,2,0,0,0,47.62,41.82ZM29.86,26.11a7.5,7.5,0,0,1-2.22,4,3.48,3.48,0,0,1-1.43.82,1.8,1.8,0,0,1-1.63-.62,8,8,0,0,1-2.5-4.52,1.71,1.71,0,0,1,1-2A6.38,6.38,0,0,1,26.06,23a6.37,6.37,0,0,1,2.9.79A1.75,1.75,0,0,1,29.86,26.11Zm-5-6a5.46,5.46,0,0,1,5.37,1.91,8.72,8.72,0,0,0-8.42,0C22.06,21.28,23.52,20.4,24.89,20.14ZM5.47,5.9a13.54,13.54,0,0,1,1-1.38c.44-.58.89-1.15,1.44-1.85a8.93,8.93,0,0,1,0,1.25A1.74,1.74,0,0,0,9.68,6a1.56,1.56,0,0,0,.15-.06A4.37,4.37,0,0,1,9,9.72a.63.63,0,0,1-.41.23c-.48,0-1,0-1.46,0A1.14,1.14,0,0,1,6,9.5C5.14,8.33,4.69,7.23,5.47,5.9ZM4,13V12h6.89V13Zm5,8.39c-.21-1.1-.32-2.21-.5-3.31A1.21,1.21,0,0,0,7.59,17,2.07,2.07,0,0,1,6,15.89c-.25-.61-.11-.85.52-.85H9.28c.14.71.23,1.43.43,2.12.36,1.22.73,2.44,1.18,3.62.68,1.75,1.41,3.48,2.16,5.2.62,1.42,1.31,2.8,1.93,4.21A1.49,1.49,0,0,1,15,31c-.41,2-.84,3.91-1.27,5.87a3.45,3.45,0,0,1-.26.59c-.58-1.75-1.15-3.42-1.69-5.1s-1.19-3.58-1.66-5.4S9.34,23.23,9,21.34Zm1.33,20.09-.43-.21a1.14,1.14,0,0,1-.68-1.55c.19-.72.36-1.45.57-2.17s.46-1.41.75-2.25c.24.74.44,1.34.64,1.94l1,2.8a.68.68,0,0,1,.07.27A1.68,1.68,0,0,1,10.32,41.43Zm25,6.25a.62.62,0,0,1-.44.26q-8.76,0-17.52,0a.69.69,0,0,1-.5-.28c-.38-.56-.73-1.15-1.11-1.76a10.11,10.11,0,0,0,3.4-4.33,1,1,0,0,0-.78-1.6,1.22,1.22,0,0,0-1.17.73c-.46.78-.94,1.55-1.41,2.32a2.42,2.42,0,0,1-2.63,1.11c-.59-.09-1.18-.25-1.76-.39a1.49,1.49,0,0,1-.29-.14,4.19,4.19,0,0,0,3-2.17,21.06,21.06,0,0,0,2.45-6.78c.21-1,.33-1.94.5-2.92a.34.34,0,0,1,.09-.16c1.47,1.09,2.93,2.2,4.43,3.26a6.11,6.11,0,0,0,3.85,1.23c2.31-.08,4.62,0,6.93,0a4.48,4.48,0,0,1,4.39,2.74A31.27,31.27,0,0,1,38,42.17a.45.45,0,0,1,0,.34c-.64,1.25-1.3,2.5-2,3.74C35.79,46.73,35.55,47.22,35.27,47.68Zm10.14-1.87q-.52,1-1.08,1.92a.46.46,0,0,1-.32.21H37.54l3.64-7,5.33,2.67C46.13,44.41,45.78,45.11,45.41,45.81Z"/><rect class="cls-1" x="4.03" y="12.04" width="6.89" height="0.91"/><path class="cls-1" d="M38,42.51c-.64,1.25-1.3,2.5-2,3.74-.25.48-.49,1-.77,1.43a.62.62,0,0,1-.44.26q-8.76,0-17.52,0a.69.69,0,0,1-.5-.28c-.38-.56-.73-1.15-1.11-1.76a10.11,10.11,0,0,0,3.4-4.33,1,1,0,0,0-.78-1.6,1.22,1.22,0,0,0-1.17.73c-.46.78-.94,1.55-1.41,2.32a2.42,2.42,0,0,1-2.63,1.11c-.59-.09-1.18-.25-1.76-.39a1.49,1.49,0,0,1-.29-.14,4.19,4.19,0,0,0,3-2.17,21.06,21.06,0,0,0,2.45-6.78c.21-1,.33-1.94.5-2.92a.34.34,0,0,1,.09-.16c1.47,1.09,2.93,2.2,4.43,3.26a6.11,6.11,0,0,0,3.85,1.23c2.31-.08,4.62,0,6.93,0a4.48,4.48,0,0,1,4.39,2.74A31.27,31.27,0,0,1,38,42.17.45.45,0,0,1,38,42.51Z"/><path class="cls-1" d="M15,31c-.41,2-.84,3.91-1.27,5.87a3.45,3.45,0,0,1-.26.59c-.58-1.75-1.15-3.42-1.69-5.1s-1.19-3.58-1.66-5.4S9.34,23.23,9,21.34c-.21-1.1-.32-2.21-.5-3.31A1.21,1.21,0,0,0,7.59,17,2.07,2.07,0,0,1,6,15.89c-.25-.61-.11-.85.52-.85H9.28c.14.71.23,1.43.43,2.12.36,1.22.73,2.44,1.18,3.62.68,1.75,1.41,3.48,2.16,5.2.62,1.42,1.31,2.8,1.93,4.21A1.49,1.49,0,0,1,15,31Z"/><path class="cls-1" d="M29.86,26.11a7.5,7.5,0,0,1-2.22,4,3.48,3.48,0,0,1-1.43.82,1.8,1.8,0,0,1-1.63-.62,8,8,0,0,1-2.5-4.52,1.71,1.71,0,0,1,1-2A6.38,6.38,0,0,1,26.06,23a6.37,6.37,0,0,1,2.9.79A1.75,1.75,0,0,1,29.86,26.11Z"/><path class="cls-1" d="M46.51,43.67c-.38.74-.73,1.44-1.1,2.14s-.71,1.29-1.08,1.92a.46.46,0,0,1-.32.21H37.54l3.64-7Z"/><path class="cls-1" d="M9,9.72a.63.63,0,0,1-.41.23c-.48,0-1,0-1.46,0A1.14,1.14,0,0,1,6,9.5c-.89-1.17-1.34-2.27-.56-3.6a13.54,13.54,0,0,1,1-1.38c.44-.58.89-1.15,1.44-1.85a8.93,8.93,0,0,1,0,1.25A1.74,1.74,0,0,0,9.68,6a1.56,1.56,0,0,0,.15-.06A4.37,4.37,0,0,1,9,9.72Z"/><path class="cls-1" d="M12.2,40.26a1.68,1.68,0,0,1-1.88,1.17l-.43-.21a1.14,1.14,0,0,1-.68-1.55c.19-.72.36-1.45.57-2.17s.46-1.41.75-2.25c.24.74.44,1.34.64,1.94l1,2.8A.68.68,0,0,1,12.2,40.26Z"/><path class="cls-1" d="M30.26,22.05a8.72,8.72,0,0,0-8.42,0c.22-.75,1.68-1.63,3.05-1.89A5.46,5.46,0,0,1,30.26,22.05Z"/></g></g></svg>