<svg xmlns="http://www.w3.org/2000/svg" viewBox="0 0 50 50"><defs><style>.cls-1{fill:none;}.cls-2{fill:#fff;}</style></defs><g id="Layer_2" data-name="Layer 2"><g id="Layer_1-2" data-name="Layer 1"><path class="cls-1" d="M50,0V37.4c-.61-.51-1.24-1-1.83-1.53a1.48,1.48,0,0,0-1.24-.43,1.41,1.41,0,0,1-1.07-.32c-.68-.51-1.38-1-2.08-1.46a.93.93,0,0,0-.57-.23c-1,.2-1.43-.3-1.72-1.11-.07-.18-.21-.34-.27-.52A1,1,0,0,0,40,31.09a.63.63,0,0,1-.77-.46c-.44-1-.46-1-1.5-1.19a22.64,22.64,0,0,1-.69-6.07c.06-1.92.32-3.82.51-5.73.06-.58,0-.74-.62-.75h-.69c0-.29,0-.51,0-.74a.9.9,0,0,0-1.29-.9c-.29.12-.56.25-.84.38-.66.3-.8.52-.75,1.25.11,1.46.23,2.92.35,4.38l.06,1.07-.13,0a2.39,2.39,0,0,1-.13-.28c-.12-.4-.23-.81-.35-1.21-.19-.68-.47-.74-1-.25l-.45.43c-.28-2.19-.55-4.28-.81-6.38-.09-.69-.14-.8-.82-.69a2.38,2.38,0,0,1-2.46-.92.91.91,0,0,0-.6-.36,26.67,26.67,0,0,0-3.9.1,6.75,6.75,0,0,1-4.12-.35,2.68,2.68,0,0,0-2.68.06,3.15,3.15,0,0,1-.77.3c-.6.13-.81.5-.87,1.1-.28,2.6-.6,5.2-.9,7.8-.11.89-.11.89.69,1.11q.18,2.94.36,5.93a2.46,2.46,0,0,1-.45,0,.93.93,0,0,0-1.08.61,4.44,4.44,0,0,1-.54.92.66.66,0,0,1-.45.26,1.15,1.15,0,0,0-1.06.46,1.88,1.88,0,0,1-1.79.74.93.93,0,0,0-.66.29c-.58.58-1.12,1.19-1.65,1.8a.79.79,0,0,1-.76.33,1.59,1.59,0,0,0-1.41.47c-.14.14-.33.22-.47.36a1.62,1.62,0,0,1-1.33.45,1.25,1.25,0,0,0-.75.1C1.65,36.14.83,36.78,0,37.4V0Z"/><path class="cls-1" d="M49.37,38H29.64c-.3,0-.59-.06-.6-.41s.33-.45.66-.45H48.31a2.3,2.3,0,0,0-1.7-.86c-1.79.07-3.58,0-5.37,0a1,1,0,0,1-.43,0,2.59,2.59,0,0,1-.45-.43c.16-.13.3-.37.47-.38.58-.05,1.17,0,1.75,0s1.4,0,2.12,0c-.71-.48-1.24-1.18-2.28-1.15-2.71.07-5.43,0-8.15,0a1,1,0,0,1-.43,0c-.15-.09-.33-.27-.33-.41s.19-.31.33-.4a1,1,0,0,1,.43,0h6.85c-.27-.49-.48-.91-.72-1.31a.41.41,0,0,0-.31-.16,2.65,2.65,0,0,0-.63,0,.65.65,0,0,1-.77-.5,3.64,3.64,0,0,1-.16-.36c-.17-.51-.42-.83-1-.74S37,30,36.87,29.6h-5c-.3,0-.59,0-.6-.4s.3-.44.61-.43h1.81V25.71c0-.15,0-.32,0-.44s.25-.39.39-.39a.56.56,0,0,1,.42.36,3.17,3.17,0,0,1,0,.82v2.67H36.7a31.15,31.15,0,0,1,0-11H35.9a.47.47,0,0,1-.52-.56c0-.38,0-.75.08-1.2a7.39,7.39,0,0,0-1,.46.54.54,0,0,0-.17.44c.1,1.52.22,3.05.34,4.57,0,.5.09,1,.12,1.51s-.24.69-.7.5c-.11,0-.2-.11-.31-.14A1.43,1.43,0,0,1,32.66,22a1.31,1.31,0,0,0-.27-.54A2.66,2.66,0,0,1,32,22a4,4,0,0,1-.68.37,2.33,2.33,0,0,1-.34-.69c-.27-1.93-.5-3.87-.74-5.8,0-.34-.09-.67-.14-1H29.05c0,.16,0,.3,0,.44,0,1.82,0,3.64,0,5.47a.84.84,0,0,0,.31.64,2.63,2.63,0,0,1,1.29,2.83,15.55,15.55,0,0,0,0,2.05c0,.3-.08.58-.45.56s-.39-.28-.39-.57c0-1,0-2,0-3a.86.86,0,0,0-.28-.61,2.8,2.8,0,0,1-1.32-2.92c.1-1.55,0-3.12,0-4.68a2,2,0,0,0-.33-.75c0-.08-.15-.13-.2-.2a1.78,1.78,0,0,0-2-.59c0,.16,0,.33,0,.5,0,1,0,1.92,0,2.88,0,.3-.06.58-.43.58s-.42-.29-.42-.59c0-1.12,0-2.24,0-3.39h-.88v2a1.14,1.14,0,0,1,0,.49,2.17,2.17,0,0,1-.4.47c-.14-.16-.4-.31-.42-.49-.05-.64,0-1.3,0-2,0-.11,0-.22,0-.37L20.55,14v7.83a1.08,1.08,0,0,1,0,.48c-.08.14-.26.32-.39.32s-.31-.19-.39-.34a1,1,0,0,1,0-.43c0-2.58,0-5.15,0-7.72,0-.44-.13-.64-.55-.73s-.84-.27-1.26-.39-.74.07-.74.55v4.79c0,.15,0,.33,0,.43a.78.78,0,0,1-.44.35c-.11,0-.3-.21-.37-.36a1.55,1.55,0,0,1,0-.53V13.5c-.44.05-.68.18-.73.67-.27,2.54-.59,5.07-.9,7.6.65.26.67.26.71,1,.12,1.81.22,3.61.33,5.41,0,.18,0,.35,0,.55h1.62v-6c0-.33,0-.72.43-.71s.42.38.42.7v6h4.33V21.91c0-.13,0-.28,0-.38s.26-.37.37-.36a.74.74,0,0,1,.44.35c.07.1,0,.28,0,.43v6.77h4.2c0-.16,0-.33,0-.5V24.41c0-.3,0-.59.41-.6s.45.28.45.6v4.31a1.76,1.76,0,0,1,.51.08c.13.08.3.25.29.37a.63.63,0,0,1-.31.41,1.09,1.09,0,0,1-.48,0c-4.59,0-9.18,0-13.77,0A.71.71,0,0,0,14,30c-.07.18-.21.33-.29.51-.27.58-.61,1-1.36.89-.13,0-.29.12-.43.19a.49.49,0,0,0,0,.11H25.34a1,1,0,0,1,.43,0c.16.08.38.26.36.37a.7.7,0,0,1-.35.43c-.12.07-.32,0-.48,0H10.07a1.07,1.07,0,0,0-.93.4c-.49.58-1,1.15-1.55,1.69a1.09,1.09,0,0,1-.75.33,2,2,0,0,0-1.67.62,2.65,2.65,0,0,1-1.94.71,4,4,0,0,0-1.38.62l.06.18H14.15c.14,0,.32,0,.43,0a2.51,2.51,0,0,1,.46.41,4.4,4.4,0,0,1-.45.42c-.08.05-.22,0-.34,0-4.49,0-9,0-13.47,0A2.68,2.68,0,0,1,0,37.7V50H50V37.7C49.79,37.79,49.58,38,49.37,38ZM31.3,31.31h5c.3,0,.58.06.56.44s-.27.39-.56.39h-5c-.31,0-.58-.06-.57-.43S31,31.31,31.3,31.31ZM23.38,19.2c-.09.14-.28.31-.41.31a.57.57,0,0,1-.38-.35,1.1,1.1,0,0,1,0-.67c.06-.2.22-.46.39-.5s.43.2.45.49v.42A.51.51,0,0,1,23.38,19.2ZM21,38c-.52,0-1,0-1.56,0h-1.6c-.3,0-.53-.09-.54-.43s.25-.43.53-.43H21c.29,0,.56.13.49.45A.68.68,0,0,1,21,38Zm3.61,0c-.09.06-.25,0-.38,0s-.28.05-.38,0a3.2,3.2,0,0,1-.51-.4c.16-.15.29-.37.48-.43a1.59,1.59,0,0,1,.81,0c.19,0,.33.28.49.42A4,4,0,0,1,24.59,38Zm4.11-2.64H12.46a1,1,0,0,1-.47,0c-.14-.07-.32-.26-.31-.38a.67.67,0,0,1,.32-.41c.11-.07.28,0,.43,0H28.77c.11,0,.25,0,.33,0a3.56,3.56,0,0,1,.45.42,2.94,2.94,0,0,1-.46.41C29,35.38,28.83,35.33,28.7,35.33Z"/><path class="cls-2" d="M50,37.4v.3c-.21.09-.42.27-.63.27H29.64c-.3,0-.59-.06-.6-.41s.33-.45.66-.45H48.31a2.3,2.3,0,0,0-1.7-.86c-1.79.07-3.58,0-5.37,0a1,1,0,0,1-.43,0,2.59,2.59,0,0,1-.45-.43c.16-.13.3-.37.47-.38.58-.05,1.17,0,1.75,0s1.4,0,2.12,0c-.71-.48-1.24-1.18-2.28-1.15-2.71.07-5.43,0-8.15,0a1,1,0,0,1-.43,0c-.15-.09-.33-.27-.33-.41s.19-.31.33-.4a1,1,0,0,1,.43,0h6.85c-.27-.49-.48-.91-.72-1.31a.41.41,0,0,0-.31-.16,2.65,2.65,0,0,0-.63,0,.65.65,0,0,1-.77-.5,3.64,3.64,0,0,1-.16-.36c-.17-.51-.42-.83-1-.74S37,30,36.87,29.6h-5c-.3,0-.59,0-.6-.4s.3-.44.61-.43h1.81V25.71c0-.15,0-.32,0-.44s.25-.39.39-.39a.56.56,0,0,1,.42.36,3.17,3.17,0,0,1,0,.82v2.67H36.7a31.15,31.15,0,0,1,0-11H35.9a.47.47,0,0,1-.52-.56c0-.38,0-.75.08-1.2a7.39,7.39,0,0,0-1,.46.54.54,0,0,0-.17.44c.1,1.52.22,3.05.34,4.57,0,.5.09,1,.12,1.51s-.24.69-.7.5c-.11,0-.2-.11-.31-.14A1.43,1.43,0,0,1,32.66,22a1.31,1.31,0,0,0-.27-.54A2.66,2.66,0,0,1,32,22a4,4,0,0,1-.68.37,2.33,2.33,0,0,1-.34-.69c-.27-1.93-.5-3.87-.74-5.8,0-.34-.09-.67-.14-1H29.05c0,.16,0,.3,0,.44,0,1.82,0,3.64,0,5.47a.84.84,0,0,0,.31.64,2.63,2.63,0,0,1,1.29,2.83,15.55,15.55,0,0,0,0,2.05c0,.3-.08.58-.45.56s-.39-.28-.39-.57c0-1,0-2,0-3a.86.86,0,0,0-.28-.61,2.8,2.8,0,0,1-1.32-2.92c.1-1.55,0-3.12,0-4.68a2,2,0,0,0-.33-.75c0-.08-.15-.13-.2-.2a1.78,1.78,0,0,0-2-.59c0,.16,0,.33,0,.5,0,1,0,1.92,0,2.88,0,.3-.06.58-.43.58s-.42-.29-.42-.59c0-1.12,0-2.24,0-3.39h-.88v2a1.14,1.14,0,0,1,0,.49,2.17,2.17,0,0,1-.4.47c-.14-.16-.4-.31-.42-.49-.05-.64,0-1.3,0-2,0-.11,0-.22,0-.37L20.55,14v7.83a1.08,1.08,0,0,1,0,.48c-.08.14-.26.32-.39.32s-.31-.19-.39-.34a1,1,0,0,1,0-.43c0-2.58,0-5.15,0-7.72,0-.44-.13-.64-.55-.73s-.84-.27-1.26-.39-.74.07-.74.55v4.79c0,.15,0,.33,0,.43a.78.78,0,0,1-.44.35c-.11,0-.3-.21-.37-.36a1.55,1.55,0,0,1,0-.53V13.5c-.44.05-.68.18-.73.67-.27,2.54-.59,5.07-.9,7.6.65.26.67.26.71,1,.12,1.81.22,3.61.33,5.41,0,.18,0,.35,0,.55h1.62v-6c0-.33,0-.72.43-.71s.42.38.42.7v6h4.33V21.91c0-.13,0-.28,0-.38s.26-.37.37-.36a.74.74,0,0,1,.44.35c.07.1,0,.28,0,.43v6.77h4.2c0-.16,0-.33,0-.5V24.41c0-.3,0-.59.41-.6s.45.28.45.6v4.31a1.76,1.76,0,0,1,.51.08c.13.08.3.25.29.37a.63.63,0,0,1-.31.41,1.09,1.09,0,0,1-.48,0c-4.59,0-9.18,0-13.77,0A.71.71,0,0,0,14,30c-.07.18-.21.33-.29.51-.27.58-.61,1-1.36.89-.13,0-.29.12-.43.19a.49.49,0,0,0,0,.11H25.34a1,1,0,0,1,.43,0c.16.08.38.26.36.37a.7.7,0,0,1-.35.43c-.12.07-.32,0-.48,0H10.07a1.07,1.07,0,0,0-.93.4c-.49.58-1,1.15-1.55,1.69a1.09,1.09,0,0,1-.75.33,2,2,0,0,0-1.67.62,2.65,2.65,0,0,1-1.94.71,4,4,0,0,0-1.38.62l.06.18H14.15c.14,0,.32,0,.43,0a2.51,2.51,0,0,1,.46.41,4.4,4.4,0,0,1-.45.42c-.08.05-.22,0-.34,0-4.49,0-9,0-13.47,0A2.68,2.68,0,0,1,0,37.7v-.3c.83-.62,1.65-1.26,2.5-1.85a1.25,1.25,0,0,1,.75-.1A1.62,1.62,0,0,0,4.58,35c.14-.14.33-.22.47-.36a1.59,1.59,0,0,1,1.41-.47.79.79,0,0,0,.76-.33c.53-.61,1.07-1.22,1.65-1.8a.93.93,0,0,1,.66-.29A1.88,1.88,0,0,0,11.32,31a1.15,1.15,0,0,1,1.06-.46.66.66,0,0,0,.45-.26,4.44,4.44,0,0,0,.54-.92.93.93,0,0,1,1.08-.61,2.46,2.46,0,0,0,.45,0q-.18-3-.36-5.93c-.8-.22-.8-.22-.69-1.11.3-2.6.62-5.2.9-7.8.06-.6.27-1,.87-1.1a3.15,3.15,0,0,0,.77-.3,2.68,2.68,0,0,1,2.68-.06,6.75,6.75,0,0,0,4.12.35,26.67,26.67,0,0,1,3.9-.1.91.91,0,0,1,.6.36,2.38,2.38,0,0,0,2.46.92c.68-.11.73,0,.82.69.26,2.1.53,4.19.81,6.38l.45-.43c.51-.49.79-.43,1,.25.12.4.23.81.35,1.21a2.39,2.39,0,0,0,.13.28l.13,0-.06-1.07c-.12-1.46-.24-2.92-.35-4.38,0-.73.09-.95.75-1.25.28-.13.55-.26.84-.38a.9.9,0,0,1,1.29.9c0,.23,0,.45,0,.74h.69c.59,0,.68.17.62.75-.19,1.91-.45,3.81-.51,5.73a22.64,22.64,0,0,0,.69,6.07c1,.18,1.06.17,1.5,1.19a.63.63,0,0,0,.77.46,1,1,0,0,1,1.21.71c.06.18.2.34.27.52.29.81.76,1.31,1.72,1.11a.93.93,0,0,1,.57.23c.7.47,1.4,1,2.08,1.46a1.41,1.41,0,0,0,1.07.32,1.48,1.48,0,0,1,1.24.43C48.76,36.4,49.39,36.89,50,37.4Z"/><path class="cls-2" d="M29.55,34.91a2.94,2.94,0,0,1-.46.41c-.1.06-.26,0-.39,0H12.46a1,1,0,0,1-.47,0c-.14-.07-.32-.26-.31-.38a.67.67,0,0,1,.32-.41c.11-.07.28,0,.43,0H28.77c.11,0,.25,0,.33,0A3.56,3.56,0,0,1,29.55,34.91Z"/><path class="cls-2" d="M36.84,31.75c0,.34-.27.39-.56.39h-5c-.31,0-.58-.06-.57-.43s.28-.4.56-.4h5C36.58,31.31,36.86,31.37,36.84,31.75Z"/><path class="cls-2" d="M21.47,37.57A.68.68,0,0,1,21,38c-.52,0-1,0-1.56,0h-1.6c-.3,0-.53-.09-.54-.43s.25-.43.53-.43H21C21.27,37.13,21.54,37.25,21.47,37.57Z"/><path class="cls-2" d="M25.1,37.56a4,4,0,0,1-.51.41c-.09.06-.25,0-.38,0s-.28.05-.38,0a3.2,3.2,0,0,1-.51-.4c.16-.15.29-.37.48-.43a1.59,1.59,0,0,1,.81,0C24.8,37.19,24.94,37.42,25.1,37.56Z"/><path class="cls-2" d="M23.38,19.2c-.09.14-.28.31-.41.31a.57.57,0,0,1-.38-.35,1.1,1.1,0,0,1,0-.67c.06-.2.22-.46.39-.5s.43.2.45.49v.42A.51.51,0,0,1,23.38,19.2Z"/></g></g></svg>