<svg xmlns="http://www.w3.org/2000/svg" viewBox="0 0 50 50"><defs><style>.cls-1{fill:none;}.cls-2{fill:#fff;}</style></defs><g id="Layer_2" data-name="Layer 2"><g id="Layer_1-2" data-name="Layer 1"><path class="cls-1" d="M50,0V50H21.68a2.86,2.86,0,0,1-.07-.28c-.2-2.64-.44-5.29-.6-7.93a61.71,61.71,0,0,1,.8-13.37,39.45,39.45,0,0,1,2.91-10.19c.18-.39,1.23-.79,1.58-.55a6.83,6.83,0,0,1,2.22,2.22,7.48,7.48,0,0,1,.74,3.92v2.4A6.3,6.3,0,0,0,31,21.82a4.92,4.92,0,0,0-3-4.56l.93-.13a14,14,0,0,1,5.28.29,13,13,0,0,1,5.7,3.44c1.73,1.7,3.35,3.51,5,5.27a2.13,2.13,0,0,1,.26.44l.17-.15a14.91,14.91,0,0,0-3.94-9.48,10.66,10.66,0,0,0-14.82-1.06l-.32.25a.69.69,0,0,1,.23-.37c.85-.71,1.66-1.46,2.55-2.12a11.92,11.92,0,0,1,8.3-2.52,31.35,31.35,0,0,1,6.28,1.33l3.84,1.13-.13-.25a14.08,14.08,0,0,0-9.67-6.26,10.24,10.24,0,0,0-9.94,3.81c-.31.36-.57.76-.9,1.19a10.51,10.51,0,0,0-1.26-6A11.66,11.66,0,0,0,18,.5C17.07.27,16.15.16,15.24,0Z"/><path class="cls-1" d="M24,17.43l-.3.47C23,19,22.3,20,21.69,21.09a51.29,51.29,0,0,0-4.48,11.25,70.05,70.05,0,0,0-1.69,7.4c-.37,2.27-.4,4.6-.57,6.9-.08,1.12-.14,2.24-.2,3.36H0V0H13L10.41.46a4.77,4.77,0,0,0,1,.61A66.17,66.17,0,0,1,18.55,4.8c4,2.6,5.53,6.49,5.83,10.85A26.83,26.83,0,0,0,23,12.87,9.88,9.88,0,0,0,14.63,8c-5.12-.17-9,2.25-11.94,6.3,0,0,0,.1,0,.14,2.5-.65,4.95-1.37,7.43-1.93a12.21,12.21,0,0,1,9.43,1.23c.93.57,1.81,1.24,2.71,1.86a.78.78,0,0,0-.05.14,5,5,0,0,0-4.08,1.71c-1,1.08-1.81,3.22-1.63,4,.9-.84,1.84-1.75,2.82-2.63A5.3,5.3,0,0,1,24,17.43Z"/><path class="cls-2" d="M41.36,16.94a14.91,14.91,0,0,1,3.94,9.48l-.17.15a2.13,2.13,0,0,0-.26-.44c-1.66-1.76-3.28-3.57-5-5.27a13,13,0,0,0-5.7-3.44,14,14,0,0,0-5.28-.29l-.93.13a4.92,4.92,0,0,1,3,4.56,6.3,6.3,0,0,1-1.71,4.4v-2.4a7.48,7.48,0,0,0-.74-3.92,6.83,6.83,0,0,0-2.22-2.22c-.35-.24-1.4.16-1.58.55a39.45,39.45,0,0,0-2.91,10.19A61.71,61.71,0,0,0,21,41.79c.16,2.64.4,5.29.6,7.93a2.86,2.86,0,0,0,.07.28H14.75c.06-1.12.12-2.24.2-3.36.17-2.3.2-4.63.57-6.9a70.05,70.05,0,0,1,1.69-7.4,51.29,51.29,0,0,1,4.48-11.25C22.3,20,23,19,23.67,17.9l.3-.47a5.3,5.3,0,0,0-4.7,1.29c-1,.88-1.92,1.79-2.82,2.63-.18-.73.62-2.87,1.63-4a5,5,0,0,1,4.08-1.71.78.78,0,0,1,.05-.14c-.9-.62-1.78-1.29-2.71-1.86a12.21,12.21,0,0,0-9.43-1.23c-2.48.56-4.93,1.28-7.43,1.93,0,0,0-.1,0-.14C5.64,10.2,9.51,7.78,14.63,8A9.88,9.88,0,0,1,23,12.87a26.83,26.83,0,0,1,1.4,2.78c-.3-4.36-1.83-8.25-5.83-10.85a66.17,66.17,0,0,0-7.13-3.73,4.77,4.77,0,0,1-1-.61L13,0h2.25c.91.16,1.83.27,2.72.5a11.66,11.66,0,0,1,7.56,5.57,10.51,10.51,0,0,1,1.26,6c.33-.43.59-.83.9-1.19a10.24,10.24,0,0,1,9.94-3.81,14.08,14.08,0,0,1,9.67,6.26l.13.25-3.84-1.13a31.35,31.35,0,0,0-6.28-1.33A11.92,11.92,0,0,0,29,13.64c-.89.66-1.7,1.41-2.55,2.12a.69.69,0,0,0-.23.37l.32-.25A10.66,10.66,0,0,1,41.36,16.94Z"/></g></g></svg>